<svg xmlns="http://www.w3.org/2000/svg" version="1.1" width="582" height="183">
<path d="M 2.878906 13.319336 L 2.878906 6.412109 L 6.729980 6.412109 L 6.729980 7.335938 L 3.738281 7.335938 L 3.738281 13.319336 Z " fill="rgb(0, 0, 0)" fill-opacity="1.000000" />
<path d="M 2.878906 26.319336 L 2.878906 12.300781 L 3.738281 12.300781 L 3.738281 26.319336 Z " fill="rgb(0, 0, 0)" fill-opacity="1.000000" />
<path d="M 2.878906 39.319336 L 2.878906 25.300781 L 3.738281 25.300781 L 3.738281 39.319336 Z " fill="rgb(0, 0, 0)" fill-opacity="1.000000" />
<path d="M 2.878906 52.319336 L 2.878906 38.300781 L 3.738281 38.300781 L 3.738281 52.319336 Z " fill="rgb(0, 0, 0)" fill-opacity="1.000000" />
<path d="M 2.878906 59.335938 L 2.878906 51.300781 L 3.738281 51.300781 L 3.738281 58.412109 L 6.729980 58.412109 L 6.729980 59.335938 Z " fill="rgb(0, 0, 0)" fill-opacity="1.000000" />
<path d="M 56.032227 75.418945 L 59.308594 68.866211 L 62.590332 75.418945 Z " fill="rgb(0, 0, 0)" fill-opacity="1.000000" />
<path d="M 58.878906 91.319336 L 58.878906 77.300781 L 59.738281 77.300781 L 59.738281 91.319336 Z " fill="rgb(0, 0, 0)" fill-opacity="1.000000" />
<path d="M 58.878906 98.335938 L 58.878906 90.300781 L 59.738281 90.300781 L 59.738281 97.412109 L 62.729980 97.412109 L 62.729980 98.335938 Z " fill="rgb(0, 0, 0)" fill-opacity="1.000000" />
<path d="M 464.878906 130.319336 L 464.878906 123.412109 L 468.729980 123.412109 L 468.729980 124.335938 L 465.738281 124.335938 L 465.738281 130.319336 Z " fill="rgb(0, 0, 0)" fill-opacity="1.000000" />
<path d="M 464.878906 143.319336 L 464.878906 129.300781 L 465.738281 129.300781 L 465.738281 143.319336 Z " fill="rgb(0, 0, 0)" fill-opacity="1.000000" />
<path d="M 464.878906 156.319336 L 464.878906 142.300781 L 465.738281 142.300781 L 465.738281 156.319336 Z " fill="rgb(0, 0, 0)" fill-opacity="1.000000" />
<path d="M 464.878906 169.319336 L 464.878906 155.300781 L 465.738281 155.300781 L 465.738281 169.319336 Z " fill="rgb(0, 0, 0)" fill-opacity="1.000000" />
<path d="M 464.878906 176.335938 L 464.878906 168.300781 L 465.738281 168.300781 L 465.738281 175.412109 L 468.729980 175.412109 L 468.729980 176.335938 Z " fill="rgb(0, 0, 0)" fill-opacity="1.000000" />
<path d="M 468.892578 176.335938 L 468.892578 175.412109 L 475.729980 175.412109 L 475.729980 176.335938 Z " fill="rgb(0, 0, 0)" fill-opacity="1.000000" />
<path d="M 475.892578 176.335938 L 475.892578 175.412109 L 482.729980 175.412109 L 482.729980 176.335938 Z " fill="rgb(0, 0, 0)" fill-opacity="1.000000" />
<path d="M 482.892578 176.335938 L 482.892578 175.412109 L 489.729980 175.412109 L 489.729980 176.335938 Z " fill="rgb(0, 0, 0)" fill-opacity="1.000000" />
<path d="M 489.892578 176.335938 L 489.892578 175.412109 L 496.729980 175.412109 L 496.729980 176.335938 Z " fill="rgb(0, 0, 0)" fill-opacity="1.000000" />
<path d="M 496.892578 176.335938 L 496.892578 175.412109 L 503.729980 175.412109 L 503.729980 176.335938 Z " fill="rgb(0, 0, 0)" fill-opacity="1.000000" />
<path d="M 503.892578 176.335938 L 503.892578 175.412109 L 510.729980 175.412109 L 510.729980 176.335938 Z " fill="rgb(0, 0, 0)" fill-opacity="1.000000" />
<path d="M 510.892578 176.335938 L 510.892578 175.412109 L 517.729980 175.412109 L 517.729980 176.335938 Z " fill="rgb(0, 0, 0)" fill-opacity="1.000000" />
<path d="M 517.892578 176.335938 L 517.892578 175.412109 L 524.729980 175.412109 L 524.729980 176.335938 Z " fill="rgb(0, 0, 0)" fill-opacity="1.000000" />
<path d="M 524.892578 176.335938 L 524.892578 175.412109 L 531.729980 175.412109 L 531.729980 176.335938 Z " fill="rgb(0, 0, 0)" fill-opacity="1.000000" />
<path d="M 531.892578 176.335938 L 531.892578 175.412109 L 538.729980 175.412109 L 538.729980 176.335938 Z " fill="rgb(0, 0, 0)" fill-opacity="1.000000" />
<path d="M 538.892578 176.335938 L 538.892578 175.412109 L 545.729980 175.412109 L 545.729980 176.335938 Z " fill="rgb(0, 0, 0)" fill-opacity="1.000000" />
<path d="M 545.892578 176.335938 L 545.892578 175.412109 L 552.729980 175.412109 L 552.729980 176.335938 Z " fill="rgb(0, 0, 0)" fill-opacity="1.000000" />
<path d="M 552.892578 176.335938 L 552.892578 175.412109 L 559.729980 175.412109 L 559.729980 176.335938 Z " fill="rgb(0, 0, 0)" fill-opacity="1.000000" />
<path d="M 559.892578 176.335938 L 559.892578 175.412109 L 566.729980 175.412109 L 566.729980 176.335938 Z " fill="rgb(0, 0, 0)" fill-opacity="1.000000" />
<path d="M 566.892578 176.335938 L 566.892578 175.412109 L 573.729980 175.412109 L 573.729980 176.335938 Z " fill="rgb(0, 0, 0)" fill-opacity="1.000000" />
<path d="M 573.892578 176.335938 L 573.892578 175.412109 L 576.878906 175.412109 L 576.878906 168.300781 L 577.738281 168.300781 L 577.738281 176.335938 Z " fill="rgb(0, 0, 0)" fill-opacity="1.000000" />
<path d="M 490.735840 144.980957 L 491.826172 144.980957 L 491.826172 148.053223 L 494.796387 148.053223 L 494.796387 144.980957 L 495.886719 144.980957 L 495.886719 153.000000 L 494.796387 153.000000 L 494.796387 148.966309 L 491.826172 148.966309 L 491.826172 153.000000 L 490.735840 153.000000 Z " fill="rgb(0, 0, 0)" fill-opacity="1.000000" />
<path d="M 576.878906 169.319336 L 576.878906 155.300781 L 577.738281 155.300781 L 577.738281 169.319336 Z " fill="rgb(0, 0, 0)" fill-opacity="1.000000" />
<path d="M 503.015625 149.498047 L 503.015625 149.981445 L 498.734863 149.981445 L 498.734863 150.013672 Q 498.691895 151.243652 499.204834 151.780762 Q 499.717773 152.317871 500.652344 152.317871 Q 501.125000 152.317871 501.640625 152.167480 Q 502.156250 152.017090 502.741699 151.710938 L 502.741699 152.693848 Q 502.177734 152.924805 501.654053 153.040283 Q 501.130371 153.155762 500.641602 153.155762 Q 499.239746 153.155762 498.450195 152.315186 Q 497.660645 151.474609 497.660645 149.997559 Q 497.660645 148.558105 498.434082 147.698730 Q 499.207520 146.839355 500.496582 146.839355 Q 501.645996 146.839355 502.309326 147.618164 Q 502.972656 148.396973 503.015625 149.498047 Z M 502.027344 149.208008 Q 501.962891 148.584961 501.573486 148.131104 Q 501.184082 147.677246 500.453613 147.677246 Q 499.739258 147.677246 499.277344 148.149902 Q 498.815430 148.622559 498.772461 149.213379 Z " fill="rgb(0, 0, 0)" fill-opacity="1.000000" />
<path d="M 507.770508 149.976074 L 507.442871 149.976074 Q 506.578125 149.976074 506.140381 150.279541 Q 505.702637 150.583008 505.702637 151.184570 Q 505.702637 151.727051 506.030273 152.027832 Q 506.357910 152.328613 506.937988 152.328613 Q 507.754395 152.328613 508.221680 151.761963 Q 508.688965 151.195312 508.694336 150.196289 L 508.694336 149.976074 Z M 509.687988 149.567871 L 509.687988 153.000000 L 508.694336 153.000000 L 508.694336 152.108398 Q 508.377441 152.645508 507.896729 152.900635 Q 507.416016 153.155762 506.728516 153.155762 Q 505.810059 153.155762 505.262207 152.637451 Q 504.714355 152.119141 504.714355 151.249023 Q 504.714355 150.244629 505.388428 149.723633 Q 506.062500 149.202637 507.367676 149.202637 L 508.694336 149.202637 L 508.694336 149.046875 Q 508.688965 148.327148 508.329102 148.002197 Q 507.969238 147.677246 507.179688 147.677246 Q 506.674805 147.677246 506.159180 147.822266 Q 505.643555 147.967285 505.154785 148.246582 L 505.154785 147.258301 Q 505.702637 147.048828 506.204834 146.944092 Q 506.707031 146.839355 507.179688 146.839355 Q 507.926270 146.839355 508.455322 147.059570 Q 508.984375 147.279785 509.312012 147.720215 Q 509.516113 147.988770 509.602051 148.383545 Q 509.687988 148.778320 509.687988 149.567871 Z " fill="rgb(0, 0, 0)" fill-opacity="1.000000" />
<path d="M 514.861816 150.824707 Q 514.861816 151.490723 515.106201 151.829102 Q 515.350586 152.167480 515.828613 152.167480 L 516.983398 152.167480 L 516.983398 153.000000 L 515.731934 153.000000 Q 514.845703 153.000000 514.359619 152.433350 Q 513.873535 151.866699 513.873535 150.824707 L 513.873535 145.383789 L 512.289062 145.383789 L 512.289062 144.610352 L 514.861816 144.610352 Z " fill="rgb(0, 0, 0)" fill-opacity="1.000000" />
<path d="M 521.297852 145.276367 L 521.297852 146.984375 L 523.542969 146.984375 L 523.542969 147.752441 L 521.297852 147.752441 L 521.297852 151.018066 Q 521.297852 151.684082 521.550293 151.947266 Q 521.802734 152.210449 522.431152 152.210449 L 523.542969 152.210449 L 523.542969 153.000000 L 522.334473 153.000000 Q 521.222656 153.000000 520.766113 152.554199 Q 520.309570 152.108398 520.309570 151.018066 L 520.309570 147.752441 L 518.703613 147.752441 L 518.703613 146.984375 L 520.309570 146.984375 L 520.309570 145.276367 Z " fill="rgb(0, 0, 0)" fill-opacity="1.000000" />
<path d="M 530.645020 149.272461 L 530.645020 153.000000 L 529.651367 153.000000 L 529.651367 149.272461 Q 529.651367 148.461426 529.366699 148.080078 Q 529.082031 147.698730 528.475098 147.698730 Q 527.782227 147.698730 527.408936 148.190186 Q 527.035645 148.681641 527.035645 149.600098 L 527.035645 153.000000 L 526.047363 153.000000 L 526.047363 144.642578 L 527.035645 144.642578 L 527.035645 147.886719 Q 527.298828 147.371094 527.750000 147.105225 Q 528.201172 146.839355 528.818848 146.839355 Q 529.737305 146.839355 530.191162 147.443604 Q 530.645020 148.047852 530.645020 149.272461 Z " fill="rgb(0, 0, 0)" fill-opacity="1.000000" />
<path d="M 533.981934 148.955566 L 533.981934 152.108398 L 535.265625 152.108398 Q 536.210938 152.108398 536.613770 151.778076 Q 537.016602 151.447754 537.016602 150.690430 Q 537.016602 149.691406 536.592285 149.323486 Q 536.167969 148.955566 535.265625 148.955566 Z M 533.981934 145.872559 L 533.981934 148.074707 L 535.244141 148.074707 Q 536.028320 148.074707 536.380127 147.773926 Q 536.731934 147.473145 536.731934 147.016602 Q 536.731934 146.409668 536.385498 146.141113 Q 536.039062 145.872559 535.244141 145.872559 Z M 532.891602 144.980957 L 535.265625 144.980957 Q 536.495605 144.980957 537.161621 145.512695 Q 537.827637 146.044434 537.827637 147.016602 Q 537.827637 147.537598 537.475830 147.961914 Q 537.124023 148.386230 536.420410 148.493652 Q 537.209961 148.611816 537.658447 149.167725 Q 538.106934 149.723633 538.106934 150.797852 Q 538.106934 151.888184 537.392578 152.444092 Q 536.678223 153.000000 535.265625 153.000000 L 532.891602 153.000000 Z " fill="rgb(0, 0, 0)" fill-opacity="1.000000" />
<path d="M 542.770508 149.976074 L 542.442871 149.976074 Q 541.578125 149.976074 541.140381 150.279541 Q 540.702637 150.583008 540.702637 151.184570 Q 540.702637 151.727051 541.030273 152.027832 Q 541.357910 152.328613 541.937988 152.328613 Q 542.754395 152.328613 543.221680 151.761963 Q 543.688965 151.195312 543.694336 150.196289 L 543.694336 149.976074 Z M 544.687988 149.567871 L 544.687988 153.000000 L 543.694336 153.000000 L 543.694336 152.108398 Q 543.377441 152.645508 542.896729 152.900635 Q 542.416016 153.155762 541.728516 153.155762 Q 540.810059 153.155762 540.262207 152.637451 Q 539.714355 152.119141 539.714355 151.249023 Q 539.714355 150.244629 540.388428 149.723633 Q 541.062500 149.202637 542.367676 149.202637 L 543.694336 149.202637 L 543.694336 149.046875 Q 543.688965 148.327148 543.329102 148.002197 Q 542.969238 147.677246 542.179688 147.677246 Q 541.674805 147.677246 541.159180 147.822266 Q 540.643555 147.967285 540.154785 148.246582 L 540.154785 147.258301 Q 540.702637 147.048828 541.204834 146.944092 Q 541.707031 146.839355 542.179688 146.839355 Q 542.926270 146.839355 543.455322 147.059570 Q 543.984375 147.279785 544.312012 147.720215 Q 544.516113 147.988770 544.602051 148.383545 Q 544.687988 148.778320 544.687988 149.567871 Z " fill="rgb(0, 0, 0)" fill-opacity="1.000000" />
<path d="M 552.203613 148.225098 Q 551.886719 147.978027 551.559082 147.865234 Q 551.231445 147.752441 550.839355 147.752441 Q 549.915527 147.752441 549.426758 148.332520 Q 548.937988 148.912598 548.937988 150.008301 L 548.937988 153.000000 L 547.944336 153.000000 L 547.944336 146.984375 L 548.937988 146.984375 L 548.937988 148.160645 Q 549.185059 147.521484 549.697998 147.180420 Q 550.210938 146.839355 550.914551 146.839355 Q 551.279785 146.839355 551.596680 146.930664 Q 551.913574 147.021973 552.203613 147.215332 Z " fill="rgb(0, 0, 0)" fill-opacity="1.000000" />
<path d="M 576.878906 156.319336 L 576.878906 142.300781 L 577.738281 142.300781 L 577.738281 156.319336 Z " fill="rgb(0, 0, 0)" fill-opacity="1.000000" />
<path d="M 576.878906 143.319336 L 576.878906 129.300781 L 577.738281 129.300781 L 577.738281 143.319336 Z " fill="rgb(0, 0, 0)" fill-opacity="1.000000" />
<path d="M 468.892578 124.335938 L 468.892578 123.412109 L 475.729980 123.412109 L 475.729980 124.335938 Z " fill="rgb(0, 0, 0)" fill-opacity="1.000000" />
<path d="M 475.892578 124.335938 L 475.892578 123.412109 L 482.729980 123.412109 L 482.729980 124.335938 Z " fill="rgb(0, 0, 0)" fill-opacity="1.000000" />
<path d="M 482.892578 124.335938 L 482.892578 123.412109 L 489.729980 123.412109 L 489.729980 124.335938 Z " fill="rgb(0, 0, 0)" fill-opacity="1.000000" />
<path d="M 489.892578 124.335938 L 489.892578 123.412109 L 496.729980 123.412109 L 496.729980 124.335938 Z " fill="rgb(0, 0, 0)" fill-opacity="1.000000" />
<path d="M 496.892578 124.335938 L 496.892578 123.412109 L 503.729980 123.412109 L 503.729980 124.335938 Z " fill="rgb(0, 0, 0)" fill-opacity="1.000000" />
<path d="M 503.892578 124.335938 L 503.892578 123.412109 L 510.729980 123.412109 L 510.729980 124.335938 Z " fill="rgb(0, 0, 0)" fill-opacity="1.000000" />
<path d="M 510.892578 124.335938 L 510.892578 123.412109 L 517.729980 123.412109 L 517.729980 124.335938 Z " fill="rgb(0, 0, 0)" fill-opacity="1.000000" />
<path d="M 517.892578 124.335938 L 517.892578 123.412109 L 524.729980 123.412109 L 524.729980 124.335938 Z " fill="rgb(0, 0, 0)" fill-opacity="1.000000" />
<path d="M 524.892578 124.335938 L 524.892578 123.412109 L 531.729980 123.412109 L 531.729980 124.335938 Z " fill="rgb(0, 0, 0)" fill-opacity="1.000000" />
<path d="M 531.892578 124.335938 L 531.892578 123.412109 L 538.729980 123.412109 L 538.729980 124.335938 Z " fill="rgb(0, 0, 0)" fill-opacity="1.000000" />
<path d="M 538.892578 124.335938 L 538.892578 123.412109 L 545.729980 123.412109 L 545.729980 124.335938 Z " fill="rgb(0, 0, 0)" fill-opacity="1.000000" />
<path d="M 545.892578 124.335938 L 545.892578 123.412109 L 552.729980 123.412109 L 552.729980 124.335938 Z " fill="rgb(0, 0, 0)" fill-opacity="1.000000" />
<path d="M 552.892578 124.335938 L 552.892578 123.412109 L 559.729980 123.412109 L 559.729980 124.335938 Z " fill="rgb(0, 0, 0)" fill-opacity="1.000000" />
<path d="M 559.892578 124.335938 L 559.892578 123.412109 L 566.729980 123.412109 L 566.729980 124.335938 Z " fill="rgb(0, 0, 0)" fill-opacity="1.000000" />
<path d="M 566.892578 124.335938 L 566.892578 123.412109 L 573.729980 123.412109 L 573.729980 124.335938 Z " fill="rgb(0, 0, 0)" fill-opacity="1.000000" />
<path d="M 576.878906 130.319336 L 576.878906 124.335938 L 573.892578 124.335938 L 573.892578 123.412109 L 577.738281 123.412109 L 577.738281 130.319336 Z " fill="rgb(0, 0, 0)" fill-opacity="1.000000" />
<path d="M 521.308594 114.418945 L 518.032227 107.866211 L 524.590332 107.866211 Z " fill="rgb(0, 0, 0)" fill-opacity="1.000000" />
<path d="M 62.892578 98.335938 L 62.892578 97.412109 L 69.729980 97.412109 L 69.729980 98.335938 Z " fill="rgb(0, 0, 0)" fill-opacity="1.000000" />
<path d="M 69.892578 98.335938 L 69.892578 97.412109 L 76.729980 97.412109 L 76.729980 98.335938 Z " fill="rgb(0, 0, 0)" fill-opacity="1.000000" />
<path d="M 76.892578 98.335938 L 76.892578 97.412109 L 83.729980 97.412109 L 83.729980 98.335938 Z " fill="rgb(0, 0, 0)" fill-opacity="1.000000" />
<path d="M 83.892578 98.335938 L 83.892578 97.412109 L 90.729980 97.412109 L 90.729980 98.335938 Z " fill="rgb(0, 0, 0)" fill-opacity="1.000000" />
<path d="M 90.892578 98.335938 L 90.892578 97.412109 L 97.729980 97.412109 L 97.729980 98.335938 Z " fill="rgb(0, 0, 0)" fill-opacity="1.000000" />
<path d="M 97.892578 98.335938 L 97.892578 97.412109 L 104.729980 97.412109 L 104.729980 98.335938 Z " fill="rgb(0, 0, 0)" fill-opacity="1.000000" />
<path d="M 104.892578 98.335938 L 104.892578 97.412109 L 111.729980 97.412109 L 111.729980 98.335938 Z " fill="rgb(0, 0, 0)" fill-opacity="1.000000" />
<path d="M 111.892578 98.335938 L 111.892578 97.412109 L 118.729980 97.412109 L 118.729980 98.335938 Z " fill="rgb(0, 0, 0)" fill-opacity="1.000000" />
<path d="M 118.892578 98.335938 L 118.892578 97.412109 L 125.729980 97.412109 L 125.729980 98.335938 Z " fill="rgb(0, 0, 0)" fill-opacity="1.000000" />
<path d="M 125.892578 98.335938 L 125.892578 97.412109 L 132.729980 97.412109 L 132.729980 98.335938 Z " fill="rgb(0, 0, 0)" fill-opacity="1.000000" />
<path d="M 132.892578 98.335938 L 132.892578 97.412109 L 139.729980 97.412109 L 139.729980 98.335938 Z " fill="rgb(0, 0, 0)" fill-opacity="1.000000" />
<path d="M 139.892578 98.335938 L 139.892578 97.412109 L 146.729980 97.412109 L 146.729980 98.335938 Z " fill="rgb(0, 0, 0)" fill-opacity="1.000000" />
<path d="M 148.981934 96.955566 L 148.981934 100.108398 L 150.265625 100.108398 Q 151.210938 100.108398 151.613770 99.778076 Q 152.016602 99.447754 152.016602 98.690430 Q 152.016602 97.691406 151.592285 97.323486 Q 151.167969 96.955566 150.265625 96.955566 Z M 148.981934 93.872559 L 148.981934 96.074707 L 150.244141 96.074707 Q 151.028320 96.074707 151.380127 95.773926 Q 151.731934 95.473145 151.731934 95.016602 Q 151.731934 94.409668 151.385498 94.141113 Q 151.039062 93.872559 150.244141 93.872559 Z M 147.891602 92.980957 L 150.265625 92.980957 Q 151.495605 92.980957 152.161621 93.512695 Q 152.827637 94.044434 152.827637 95.016602 Q 152.827637 95.537598 152.475830 95.961914 Q 152.124023 96.386230 151.420410 96.493652 Q 152.209961 96.611816 152.658447 97.167725 Q 153.106934 97.723633 153.106934 98.797852 Q 153.106934 99.888184 152.392578 100.444092 Q 151.678223 101.000000 150.265625 101.000000 L 147.891602 101.000000 Z " fill="rgb(0, 0, 0)" fill-opacity="1.000000" />
<path d="M 155.047363 98.722656 L 155.047363 94.995117 L 156.035645 94.995117 L 156.035645 98.722656 Q 156.035645 99.533691 156.322998 99.915039 Q 156.610352 100.296387 157.211914 100.296387 Q 157.910156 100.296387 158.280762 99.804932 Q 158.651367 99.313477 158.651367 98.395020 L 158.651367 94.995117 L 159.645020 94.995117 L 159.645020 101.000000 L 158.651367 101.000000 L 158.651367 100.097656 Q 158.388184 100.618652 157.934326 100.887207 Q 157.480469 101.155762 156.873535 101.155762 Q 155.949707 101.155762 155.498535 100.551514 Q 155.047363 99.947266 155.047363 98.722656 Z " fill="rgb(0, 0, 0)" fill-opacity="1.000000" />
<path d="M 164.861816 98.824707 Q 164.861816 99.490723 165.106201 99.829102 Q 165.350586 100.167480 165.828613 100.167480 L 166.983398 100.167480 L 166.983398 101.000000 L 165.731934 101.000000 Q 164.845703 101.000000 164.359619 100.433350 Q 163.873535 99.866699 163.873535 98.824707 L 163.873535 93.383789 L 162.289062 93.383789 L 162.289062 92.610352 L 164.861816 92.610352 Z " fill="rgb(0, 0, 0)" fill-opacity="1.000000" />
<path d="M 171.861816 98.824707 Q 171.861816 99.490723 172.106201 99.829102 Q 172.350586 100.167480 172.828613 100.167480 L 173.983398 100.167480 L 173.983398 101.000000 L 172.731934 101.000000 Q 171.845703 101.000000 171.359619 100.433350 Q 170.873535 99.866699 170.873535 98.824707 L 170.873535 93.383789 L 169.289062 93.383789 L 169.289062 92.610352 L 171.861816 92.610352 Z " fill="rgb(0, 0, 0)" fill-opacity="1.000000" />
<path d="M 181.015625 97.498047 L 181.015625 97.981445 L 176.734863 97.981445 L 176.734863 98.013672 Q 176.691895 99.243652 177.204834 99.780762 Q 177.717773 100.317871 178.652344 100.317871 Q 179.125000 100.317871 179.640625 100.167480 Q 180.156250 100.017090 180.741699 99.710938 L 180.741699 100.693848 Q 180.177734 100.924805 179.654053 101.040283 Q 179.130371 101.155762 178.641602 101.155762 Q 177.239746 101.155762 176.450195 100.315186 Q 175.660645 99.474609 175.660645 97.997559 Q 175.660645 96.558105 176.434082 95.698730 Q 177.207520 94.839355 178.496582 94.839355 Q 179.645996 94.839355 180.309326 95.618164 Q 180.972656 96.396973 181.015625 97.498047 Z M 180.027344 97.208008 Q 179.962891 96.584961 179.573486 96.131104 Q 179.184082 95.677246 178.453613 95.677246 Q 177.739258 95.677246 177.277344 96.149902 Q 176.815430 96.622559 176.772461 97.213379 Z " fill="rgb(0, 0, 0)" fill-opacity="1.000000" />
<path d="M 185.297852 93.276367 L 185.297852 94.984375 L 187.542969 94.984375 L 187.542969 95.752441 L 185.297852 95.752441 L 185.297852 99.018066 Q 185.297852 99.684082 185.550293 99.947266 Q 185.802734 100.210449 186.431152 100.210449 L 187.542969 100.210449 L 187.542969 101.000000 L 186.334473 101.000000 Q 185.222656 101.000000 184.766113 100.554199 Q 184.309570 100.108398 184.309570 99.018066 L 184.309570 95.752441 L 182.703613 95.752441 L 182.703613 94.984375 L 184.309570 94.984375 L 184.309570 93.276367 Z " fill="rgb(0, 0, 0)" fill-opacity="1.000000" />
<path d="M 189.735840 92.980957 L 190.826172 92.980957 L 190.826172 96.053223 L 193.796387 96.053223 L 193.796387 92.980957 L 194.886719 92.980957 L 194.886719 101.000000 L 193.796387 101.000000 L 193.796387 96.966309 L 190.826172 96.966309 L 190.826172 101.000000 L 189.735840 101.000000 Z " fill="rgb(0, 0, 0)" fill-opacity="1.000000" />
<path d="M 197.697266 95.005859 L 200.227051 95.005859 L 200.227051 100.231934 L 202.187500 100.231934 L 202.187500 101.000000 L 197.278320 101.000000 L 197.278320 100.231934 L 199.238770 100.231934 L 199.238770 95.773926 L 197.697266 95.773926 Z M 199.238770 92.669434 L 200.227051 92.669434 L 200.227051 93.915527 L 199.238770 93.915527 Z " fill="rgb(0, 0, 0)" fill-opacity="1.000000" />
<path d="M 206.297852 93.276367 L 206.297852 94.984375 L 208.542969 94.984375 L 208.542969 95.752441 L 206.297852 95.752441 L 206.297852 99.018066 Q 206.297852 99.684082 206.550293 99.947266 Q 206.802734 100.210449 207.431152 100.210449 L 208.542969 100.210449 L 208.542969 101.000000 L 207.334473 101.000000 Q 206.222656 101.000000 205.766113 100.554199 Q 205.309570 100.108398 205.309570 99.018066 L 205.309570 95.752441 L 203.703613 95.752441 L 203.703613 94.984375 L 205.309570 94.984375 L 205.309570 93.276367 Z " fill="rgb(0, 0, 0)" fill-opacity="1.000000" />
<path d="M 209.892578 98.335938 L 209.892578 97.412109 L 216.729980 97.412109 L 216.729980 98.335938 Z " fill="rgb(0, 0, 0)" fill-opacity="1.000000" />
<path d="M 216.892578 98.335938 L 216.892578 97.412109 L 223.729980 97.412109 L 223.729980 98.335938 Z " fill="rgb(0, 0, 0)" fill-opacity="1.000000" />
<path d="M 223.892578 98.335938 L 223.892578 97.412109 L 230.729980 97.412109 L 230.729980 98.335938 Z " fill="rgb(0, 0, 0)" fill-opacity="1.000000" />
<path d="M 230.892578 98.335938 L 230.892578 97.412109 L 237.729980 97.412109 L 237.729980 98.335938 Z " fill="rgb(0, 0, 0)" fill-opacity="1.000000" />
<path d="M 237.892578 98.335938 L 237.892578 97.412109 L 244.729980 97.412109 L 244.729980 98.335938 Z " fill="rgb(0, 0, 0)" fill-opacity="1.000000" />
<path d="M 244.892578 98.335938 L 244.892578 97.412109 L 251.729980 97.412109 L 251.729980 98.335938 Z " fill="rgb(0, 0, 0)" fill-opacity="1.000000" />
<path d="M 251.892578 98.335938 L 251.892578 97.412109 L 258.729980 97.412109 L 258.729980 98.335938 Z " fill="rgb(0, 0, 0)" fill-opacity="1.000000" />
<path d="M 258.892578 98.335938 L 258.892578 97.412109 L 265.729980 97.412109 L 265.729980 98.335938 Z " fill="rgb(0, 0, 0)" fill-opacity="1.000000" />
<path d="M 265.892578 98.335938 L 265.892578 97.412109 L 272.729980 97.412109 L 272.729980 98.335938 Z " fill="rgb(0, 0, 0)" fill-opacity="1.000000" />
<path d="M 272.892578 98.335938 L 272.892578 97.412109 L 279.729980 97.412109 L 279.729980 98.335938 Z " fill="rgb(0, 0, 0)" fill-opacity="1.000000" />
<path d="M 279.892578 98.335938 L 279.892578 97.412109 L 286.729980 97.412109 L 286.729980 98.335938 Z " fill="rgb(0, 0, 0)" fill-opacity="1.000000" />
<path d="M 286.892578 98.335938 L 286.892578 97.412109 L 289.878906 97.412109 L 289.878906 90.300781 L 290.738281 90.300781 L 290.738281 98.335938 Z " fill="rgb(0, 0, 0)" fill-opacity="1.000000" />
<path d="M 520.878906 104.319336 L 520.878906 90.300781 L 521.738281 90.300781 L 521.738281 104.319336 Z " fill="rgb(0, 0, 0)" fill-opacity="1.000000" />
<path d="M 289.878906 91.319336 L 289.878906 77.300781 L 290.738281 77.300781 L 290.738281 91.319336 Z " fill="rgb(0, 0, 0)" fill-opacity="1.000000" />
<path d="M 497.789551 84.922363 L 497.789551 79.980957 L 498.879883 79.980957 L 498.879883 85.416504 Q 498.879883 86.001953 498.912109 86.251709 Q 498.944336 86.501465 499.024902 86.635742 Q 499.196777 86.952637 499.521729 87.113770 Q 499.846680 87.274902 500.308594 87.274902 Q 500.775879 87.274902 501.098145 87.113770 Q 501.420410 86.952637 501.597656 86.635742 Q 501.678223 86.501465 501.710449 86.254395 Q 501.742676 86.007324 501.742676 85.427246 L 501.742676 79.980957 L 502.827637 79.980957 L 502.827637 84.922363 Q 502.827637 86.152344 502.674561 86.670654 Q 502.521484 87.188965 502.145508 87.527344 Q 501.791016 87.844238 501.334473 88.000000 Q 500.877930 88.155762 500.308594 88.155762 Q 499.744629 88.155762 499.288086 88.000000 Q 498.831543 87.844238 498.471680 87.527344 Q 498.101074 87.194336 497.945312 86.665283 Q 497.789551 86.136230 497.789551 84.922363 Z " fill="rgb(0, 0, 0)" fill-opacity="1.000000" />
<path d="M 506.014160 87.242676 L 506.014160 90.288086 L 505.020508 90.288086 L 505.020508 81.984375 L 506.014160 81.984375 L 506.014160 82.752441 Q 506.261230 82.306641 506.672119 82.072998 Q 507.083008 81.839355 507.620117 81.839355 Q 508.710449 81.839355 509.330811 82.682617 Q 509.951172 83.525879 509.951172 85.019043 Q 509.951172 86.485352 509.328125 87.320557 Q 508.705078 88.155762 507.620117 88.155762 Q 507.072266 88.155762 506.661377 87.922119 Q 506.250488 87.688477 506.014160 87.242676 Z M 508.914551 84.997559 Q 508.914551 83.848145 508.552002 83.262695 Q 508.189453 82.677246 507.475098 82.677246 Q 506.755371 82.677246 506.384766 83.265381 Q 506.014160 83.853516 506.014160 84.997559 Q 506.014160 86.136230 506.384766 86.727051 Q 506.755371 87.317871 507.475098 87.317871 Q 508.189453 87.317871 508.552002 86.732422 Q 508.914551 86.146973 508.914551 84.997559 Z " fill="rgb(0, 0, 0)" fill-opacity="1.000000" />
<path d="M 515.608398 82.752441 L 515.608398 79.642578 L 516.596680 79.642578 L 516.596680 88.000000 L 515.608398 88.000000 L 515.608398 87.242676 Q 515.361328 87.688477 514.950439 87.922119 Q 514.539551 88.155762 514.002441 88.155762 Q 512.912109 88.155762 512.286377 87.309814 Q 511.660645 86.463867 511.660645 84.976074 Q 511.660645 83.509766 512.289062 82.674561 Q 512.917480 81.839355 514.002441 81.839355 Q 514.544922 81.839355 514.958496 82.072998 Q 515.372070 82.306641 515.608398 82.752441 Z M 512.702637 84.997559 Q 512.702637 86.146973 513.067871 86.732422 Q 513.433105 87.317871 514.147461 87.317871 Q 514.861816 87.317871 515.235107 86.727051 Q 515.608398 86.136230 515.608398 84.997559 Q 515.608398 83.853516 515.235107 83.265381 Q 514.861816 82.677246 514.147461 82.677246 Q 513.433105 82.677246 513.067871 83.262695 Q 512.702637 83.848145 512.702637 84.997559 Z " fill="rgb(0, 0, 0)" fill-opacity="1.000000" />
<path d="M 521.770508 84.976074 L 521.442871 84.976074 Q 520.578125 84.976074 520.140381 85.279541 Q 519.702637 85.583008 519.702637 86.184570 Q 519.702637 86.727051 520.030273 87.027832 Q 520.357910 87.328613 520.937988 87.328613 Q 521.754395 87.328613 522.221680 86.761963 Q 522.688965 86.195312 522.694336 85.196289 L 522.694336 84.976074 Z M 523.687988 84.567871 L 523.687988 88.000000 L 522.694336 88.000000 L 522.694336 87.108398 Q 522.377441 87.645508 521.896729 87.900635 Q 521.416016 88.155762 520.728516 88.155762 Q 519.810059 88.155762 519.262207 87.637451 Q 518.714355 87.119141 518.714355 86.249023 Q 518.714355 85.244629 519.388428 84.723633 Q 520.062500 84.202637 521.367676 84.202637 L 522.694336 84.202637 L 522.694336 84.046875 Q 522.688965 83.327148 522.329102 83.002197 Q 521.969238 82.677246 521.179688 82.677246 Q 520.674805 82.677246 520.159180 82.822266 Q 519.643555 82.967285 519.154785 83.246582 L 519.154785 82.258301 Q 519.702637 82.048828 520.204834 81.944092 Q 520.707031 81.839355 521.179688 81.839355 Q 521.926270 81.839355 522.455322 82.059570 Q 522.984375 82.279785 523.312012 82.720215 Q 523.516113 82.988770 523.602051 83.383545 Q 523.687988 83.778320 523.687988 84.567871 Z " fill="rgb(0, 0, 0)" fill-opacity="1.000000" />
<path d="M 528.297852 80.276367 L 528.297852 81.984375 L 530.542969 81.984375 L 530.542969 82.752441 L 528.297852 82.752441 L 528.297852 86.018066 Q 528.297852 86.684082 528.550293 86.947266 Q 528.802734 87.210449 529.431152 87.210449 L 530.542969 87.210449 L 530.542969 88.000000 L 529.334473 88.000000 Q 528.222656 88.000000 527.766113 87.554199 Q 527.309570 87.108398 527.309570 86.018066 L 527.309570 82.752441 L 525.703613 82.752441 L 525.703613 81.984375 L 527.309570 81.984375 L 527.309570 80.276367 Z " fill="rgb(0, 0, 0)" fill-opacity="1.000000" />
<path d="M 538.015625 84.498047 L 538.015625 84.981445 L 533.734863 84.981445 L 533.734863 85.013672 Q 533.691895 86.243652 534.204834 86.780762 Q 534.717773 87.317871 535.652344 87.317871 Q 536.125000 87.317871 536.640625 87.167480 Q 537.156250 87.017090 537.741699 86.710938 L 537.741699 87.693848 Q 537.177734 87.924805 536.654053 88.040283 Q 536.130371 88.155762 535.641602 88.155762 Q 534.239746 88.155762 533.450195 87.315186 Q 532.660645 86.474609 532.660645 84.997559 Q 532.660645 83.558105 533.434082 82.698730 Q 534.207520 81.839355 535.496582 81.839355 Q 536.645996 81.839355 537.309326 82.618164 Q 537.972656 83.396973 538.015625 84.498047 Z M 537.027344 84.208008 Q 536.962891 83.584961 536.573486 83.131104 Q 536.184082 82.677246 535.453613 82.677246 Q 534.739258 82.677246 534.277344 83.149902 Q 533.815430 83.622559 533.772461 84.213379 Z " fill="rgb(0, 0, 0)" fill-opacity="1.000000" />
<path d="M 289.878906 78.319336 L 289.878906 64.300781 L 290.738281 64.300781 L 290.738281 78.319336 Z " fill="rgb(0, 0, 0)" fill-opacity="1.000000" />
<path d="M 520.878906 78.319336 L 520.878906 64.300781 L 521.738281 64.300781 L 521.738281 78.319336 Z " fill="rgb(0, 0, 0)" fill-opacity="1.000000" />
<path d="M 6.892578 59.335938 L 6.892578 58.412109 L 13.729980 58.412109 L 13.729980 59.335938 Z " fill="rgb(0, 0, 0)" fill-opacity="1.000000" />
<path d="M 13.892578 59.335938 L 13.892578 58.412109 L 20.729980 58.412109 L 20.729980 59.335938 Z " fill="rgb(0, 0, 0)" fill-opacity="1.000000" />
<path d="M 20.892578 59.335938 L 20.892578 58.412109 L 27.729980 58.412109 L 27.729980 59.335938 Z " fill="rgb(0, 0, 0)" fill-opacity="1.000000" />
<path d="M 27.892578 59.335938 L 27.892578 58.412109 L 34.729980 58.412109 L 34.729980 59.335938 Z " fill="rgb(0, 0, 0)" fill-opacity="1.000000" />
<path d="M 34.892578 59.335938 L 34.892578 58.412109 L 41.729980 58.412109 L 41.729980 59.335938 Z " fill="rgb(0, 0, 0)" fill-opacity="1.000000" />
<path d="M 41.892578 59.335938 L 41.892578 58.412109 L 48.729980 58.412109 L 48.729980 59.335938 Z " fill="rgb(0, 0, 0)" fill-opacity="1.000000" />
<path d="M 48.892578 59.335938 L 48.892578 58.412109 L 55.729980 58.412109 L 55.729980 59.335938 Z " fill="rgb(0, 0, 0)" fill-opacity="1.000000" />
<path d="M 55.892578 59.335938 L 55.892578 58.412109 L 62.729980 58.412109 L 62.729980 59.335938 Z " fill="rgb(0, 0, 0)" fill-opacity="1.000000" />
<path d="M 62.892578 59.335938 L 62.892578 58.412109 L 69.729980 58.412109 L 69.729980 59.335938 Z " fill="rgb(0, 0, 0)" fill-opacity="1.000000" />
<path d="M 69.892578 59.335938 L 69.892578 58.412109 L 76.729980 58.412109 L 76.729980 59.335938 Z " fill="rgb(0, 0, 0)" fill-opacity="1.000000" />
<path d="M 76.892578 59.335938 L 76.892578 58.412109 L 83.729980 58.412109 L 83.729980 59.335938 Z " fill="rgb(0, 0, 0)" fill-opacity="1.000000" />
<path d="M 83.892578 59.335938 L 83.892578 58.412109 L 90.729980 58.412109 L 90.729980 59.335938 Z " fill="rgb(0, 0, 0)" fill-opacity="1.000000" />
<path d="M 90.892578 59.335938 L 90.892578 58.412109 L 97.729980 58.412109 L 97.729980 59.335938 Z " fill="rgb(0, 0, 0)" fill-opacity="1.000000" />
<path d="M 97.892578 59.335938 L 97.892578 58.412109 L 104.729980 58.412109 L 104.729980 59.335938 Z " fill="rgb(0, 0, 0)" fill-opacity="1.000000" />
<path d="M 104.892578 59.335938 L 104.892578 58.412109 L 111.729980 58.412109 L 111.729980 59.335938 Z " fill="rgb(0, 0, 0)" fill-opacity="1.000000" />
<path d="M 111.892578 59.335938 L 111.892578 58.412109 L 114.878906 58.412109 L 114.878906 51.300781 L 115.738281 51.300781 L 115.738281 59.335938 Z " fill="rgb(0, 0, 0)" fill-opacity="1.000000" />
<path d="M 233.878906 59.335938 L 233.878906 51.300781 L 234.738281 51.300781 L 234.738281 58.412109 L 237.729980 58.412109 L 237.729980 59.335938 Z " fill="rgb(0, 0, 0)" fill-opacity="1.000000" />
<path d="M 237.892578 59.335938 L 237.892578 58.412109 L 244.729980 58.412109 L 244.729980 59.335938 Z " fill="rgb(0, 0, 0)" fill-opacity="1.000000" />
<path d="M 244.892578 59.335938 L 244.892578 58.412109 L 251.729980 58.412109 L 251.729980 59.335938 Z " fill="rgb(0, 0, 0)" fill-opacity="1.000000" />
<path d="M 251.892578 59.335938 L 251.892578 58.412109 L 258.729980 58.412109 L 258.729980 59.335938 Z " fill="rgb(0, 0, 0)" fill-opacity="1.000000" />
<path d="M 258.892578 59.335938 L 258.892578 58.412109 L 265.729980 58.412109 L 265.729980 59.335938 Z " fill="rgb(0, 0, 0)" fill-opacity="1.000000" />
<path d="M 265.892578 59.335938 L 265.892578 58.412109 L 272.729980 58.412109 L 272.729980 59.335938 Z " fill="rgb(0, 0, 0)" fill-opacity="1.000000" />
<path d="M 272.892578 59.335938 L 272.892578 58.412109 L 279.729980 58.412109 L 279.729980 59.335938 Z " fill="rgb(0, 0, 0)" fill-opacity="1.000000" />
<path d="M 279.892578 59.335938 L 279.892578 58.412109 L 286.729980 58.412109 L 286.729980 59.335938 Z " fill="rgb(0, 0, 0)" fill-opacity="1.000000" />
<path d="M 286.892578 59.335938 L 286.892578 58.412109 L 293.729980 58.412109 L 293.729980 59.335938 Z " fill="rgb(0, 0, 0)" fill-opacity="1.000000" />
<path d="M 293.892578 59.335938 L 293.892578 58.412109 L 300.729980 58.412109 L 300.729980 59.335938 Z " fill="rgb(0, 0, 0)" fill-opacity="1.000000" />
<path d="M 300.892578 59.335938 L 300.892578 58.412109 L 307.729980 58.412109 L 307.729980 59.335938 Z " fill="rgb(0, 0, 0)" fill-opacity="1.000000" />
<path d="M 307.892578 59.335938 L 307.892578 58.412109 L 314.729980 58.412109 L 314.729980 59.335938 Z " fill="rgb(0, 0, 0)" fill-opacity="1.000000" />
<path d="M 314.892578 59.335938 L 314.892578 58.412109 L 321.729980 58.412109 L 321.729980 59.335938 Z " fill="rgb(0, 0, 0)" fill-opacity="1.000000" />
<path d="M 321.892578 59.335938 L 321.892578 58.412109 L 328.729980 58.412109 L 328.729980 59.335938 Z " fill="rgb(0, 0, 0)" fill-opacity="1.000000" />
<path d="M 328.892578 59.335938 L 328.892578 58.412109 L 335.729980 58.412109 L 335.729980 59.335938 Z " fill="rgb(0, 0, 0)" fill-opacity="1.000000" />
<path d="M 335.892578 59.335938 L 335.892578 58.412109 L 342.729980 58.412109 L 342.729980 59.335938 Z " fill="rgb(0, 0, 0)" fill-opacity="1.000000" />
<path d="M 342.892578 59.335938 L 342.892578 58.412109 L 345.878906 58.412109 L 345.878906 51.300781 L 346.738281 51.300781 L 346.738281 59.335938 Z " fill="rgb(0, 0, 0)" fill-opacity="1.000000" />
<path d="M 464.878906 59.335938 L 464.878906 51.300781 L 465.738281 51.300781 L 465.738281 58.412109 L 468.729980 58.412109 L 468.729980 59.335938 Z " fill="rgb(0, 0, 0)" fill-opacity="1.000000" />
<path d="M 468.892578 59.335938 L 468.892578 58.412109 L 475.729980 58.412109 L 475.729980 59.335938 Z " fill="rgb(0, 0, 0)" fill-opacity="1.000000" />
<path d="M 475.892578 59.335938 L 475.892578 58.412109 L 482.729980 58.412109 L 482.729980 59.335938 Z " fill="rgb(0, 0, 0)" fill-opacity="1.000000" />
<path d="M 482.892578 59.335938 L 482.892578 58.412109 L 489.729980 58.412109 L 489.729980 59.335938 Z " fill="rgb(0, 0, 0)" fill-opacity="1.000000" />
<path d="M 489.892578 59.335938 L 489.892578 58.412109 L 496.729980 58.412109 L 496.729980 59.335938 Z " fill="rgb(0, 0, 0)" fill-opacity="1.000000" />
<path d="M 496.892578 59.335938 L 496.892578 58.412109 L 503.729980 58.412109 L 503.729980 59.335938 Z " fill="rgb(0, 0, 0)" fill-opacity="1.000000" />
<path d="M 503.892578 59.335938 L 503.892578 58.412109 L 510.729980 58.412109 L 510.729980 59.335938 Z " fill="rgb(0, 0, 0)" fill-opacity="1.000000" />
<path d="M 510.892578 59.335938 L 510.892578 58.412109 L 517.729980 58.412109 L 517.729980 59.335938 Z " fill="rgb(0, 0, 0)" fill-opacity="1.000000" />
<path d="M 517.892578 59.335938 L 517.892578 58.412109 L 524.729980 58.412109 L 524.729980 59.335938 Z " fill="rgb(0, 0, 0)" fill-opacity="1.000000" />
<path d="M 524.892578 59.335938 L 524.892578 58.412109 L 531.729980 58.412109 L 531.729980 59.335938 Z " fill="rgb(0, 0, 0)" fill-opacity="1.000000" />
<path d="M 531.892578 59.335938 L 531.892578 58.412109 L 538.729980 58.412109 L 538.729980 59.335938 Z " fill="rgb(0, 0, 0)" fill-opacity="1.000000" />
<path d="M 538.892578 59.335938 L 538.892578 58.412109 L 545.729980 58.412109 L 545.729980 59.335938 Z " fill="rgb(0, 0, 0)" fill-opacity="1.000000" />
<path d="M 545.892578 59.335938 L 545.892578 58.412109 L 552.729980 58.412109 L 552.729980 59.335938 Z " fill="rgb(0, 0, 0)" fill-opacity="1.000000" />
<path d="M 552.892578 59.335938 L 552.892578 58.412109 L 559.729980 58.412109 L 559.729980 59.335938 Z " fill="rgb(0, 0, 0)" fill-opacity="1.000000" />
<path d="M 559.892578 59.335938 L 559.892578 58.412109 L 566.729980 58.412109 L 566.729980 59.335938 Z " fill="rgb(0, 0, 0)" fill-opacity="1.000000" />
<path d="M 566.892578 59.335938 L 566.892578 58.412109 L 573.729980 58.412109 L 573.729980 59.335938 Z " fill="rgb(0, 0, 0)" fill-opacity="1.000000" />
<path d="M 573.892578 59.335938 L 573.892578 58.412109 L 576.878906 58.412109 L 576.878906 51.300781 L 577.738281 51.300781 L 577.738281 59.335938 Z " fill="rgb(0, 0, 0)" fill-opacity="1.000000" />
<path d="M 43.058105 27.980957 L 47.816895 27.980957 L 47.816895 28.894043 L 44.143066 28.894043 L 44.143066 31.053223 L 47.655762 31.053223 L 47.655762 31.966309 L 44.143066 31.966309 L 44.143066 35.086914 L 47.918945 35.086914 L 47.918945 36.000000 L 43.058105 36.000000 Z " fill="rgb(0, 0, 0)" fill-opacity="1.000000" />
<path d="M 114.878906 52.319336 L 114.878906 38.300781 L 115.738281 38.300781 L 115.738281 52.319336 Z " fill="rgb(0, 0, 0)" fill-opacity="1.000000" />
<path d="M 233.878906 52.319336 L 233.878906 38.300781 L 234.738281 38.300781 L 234.738281 52.319336 Z " fill="rgb(0, 0, 0)" fill-opacity="1.000000" />
<path d="M 345.878906 52.319336 L 345.878906 38.300781 L 346.738281 38.300781 L 346.738281 52.319336 Z " fill="rgb(0, 0, 0)" fill-opacity="1.000000" />
<path d="M 464.878906 52.319336 L 464.878906 38.300781 L 465.738281 38.300781 L 465.738281 52.319336 Z " fill="rgb(0, 0, 0)" fill-opacity="1.000000" />
<path d="M 576.878906 52.319336 L 576.878906 38.300781 L 577.738281 38.300781 L 577.738281 52.319336 Z " fill="rgb(0, 0, 0)" fill-opacity="1.000000" />
<path d="M 54.645020 32.272461 L 54.645020 36.000000 L 53.651367 36.000000 L 53.651367 32.272461 Q 53.651367 31.461426 53.366699 31.080078 Q 53.082031 30.698730 52.475098 30.698730 Q 51.782227 30.698730 51.408936 31.190186 Q 51.035645 31.681641 51.035645 32.600098 L 51.035645 36.000000 L 50.047363 36.000000 L 50.047363 29.984375 L 51.035645 29.984375 L 51.035645 30.886719 Q 51.298828 30.371094 51.750000 30.105225 Q 52.201172 29.839355 52.818848 29.839355 Q 53.737305 29.839355 54.191162 30.443604 Q 54.645020 31.047852 54.645020 32.272461 Z " fill="rgb(0, 0, 0)" fill-opacity="1.000000" />
<path d="M 62.015625 32.498047 L 62.015625 32.981445 L 57.734863 32.981445 L 57.734863 33.013672 Q 57.691895 34.243652 58.204834 34.780762 Q 58.717773 35.317871 59.652344 35.317871 Q 60.125000 35.317871 60.640625 35.167480 Q 61.156250 35.017090 61.741699 34.710938 L 61.741699 35.693848 Q 61.177734 35.924805 60.654053 36.040283 Q 60.130371 36.155762 59.641602 36.155762 Q 58.239746 36.155762 57.450195 35.315186 Q 56.660645 34.474609 56.660645 32.997559 Q 56.660645 31.558105 57.434082 30.698730 Q 58.207520 29.839355 59.496582 29.839355 Q 60.645996 29.839355 61.309326 30.618164 Q 61.972656 31.396973 62.015625 32.498047 Z M 61.027344 32.208008 Q 60.962891 31.584961 60.573486 31.131104 Q 60.184082 30.677246 59.453613 30.677246 Q 58.739258 30.677246 58.277344 31.149902 Q 57.815430 31.622559 57.772461 32.213379 Z " fill="rgb(0, 0, 0)" fill-opacity="1.000000" />
<path d="M 66.630859 30.596680 Q 66.813477 30.209961 67.095459 30.024658 Q 67.377441 29.839355 67.774902 29.839355 Q 68.500000 29.839355 68.798096 30.400635 Q 69.096191 30.961914 69.096191 32.514160 L 69.096191 36.000000 L 68.193848 36.000000 L 68.193848 32.557129 Q 68.193848 31.284180 68.051514 30.975342 Q 67.909180 30.666504 67.533203 30.666504 Q 67.103516 30.666504 66.945068 30.996826 Q 66.786621 31.327148 66.786621 32.557129 L 66.786621 36.000000 L 65.884277 36.000000 L 65.884277 32.557129 Q 65.884277 31.268066 65.731201 30.967285 Q 65.578125 30.666504 65.180664 30.666504 Q 64.788574 30.666504 64.635498 30.996826 Q 64.482422 31.327148 64.482422 32.557129 L 64.482422 36.000000 L 63.585449 36.000000 L 63.585449 29.984375 L 64.482422 29.984375 L 64.482422 30.500000 Q 64.659668 30.177734 64.925537 30.008545 Q 65.191406 29.839355 65.529785 29.839355 Q 65.937988 29.839355 66.209229 30.027344 Q 66.480469 30.215332 66.630859 30.596680 Z " fill="rgb(0, 0, 0)" fill-opacity="1.000000" />
<path d="M 74.608398 34.066406 Q 74.361328 34.694824 73.979980 35.720703 Q 73.448242 37.138672 73.265625 37.450195 Q 73.018555 37.869141 72.647949 38.078613 Q 72.277344 38.288086 71.783203 38.288086 L 70.988281 38.288086 L 70.988281 37.460938 L 71.573730 37.460938 Q 72.008789 37.460938 72.255859 37.208496 Q 72.502930 36.956055 72.884277 35.903320 L 70.558594 29.984375 L 71.605957 29.984375 L 73.389160 34.689453 L 75.145508 29.984375 L 76.192871 29.984375 Z " fill="rgb(0, 0, 0)" fill-opacity="1.000000" />
<path d="M 114.878906 39.319336 L 114.878906 25.300781 L 115.738281 25.300781 L 115.738281 39.319336 Z " fill="rgb(0, 0, 0)" fill-opacity="1.000000" />
<path d="M 118.892578 33.335938 L 118.892578 32.412109 L 125.729980 32.412109 L 125.729980 33.335938 Z " fill="rgb(0, 0, 0)" fill-opacity="1.000000" />
<path d="M 125.892578 33.335938 L 125.892578 32.412109 L 132.729980 32.412109 L 132.729980 33.335938 Z " fill="rgb(0, 0, 0)" fill-opacity="1.000000" />
<path d="M 132.892578 33.335938 L 132.892578 32.412109 L 139.729980 32.412109 L 139.729980 33.335938 Z " fill="rgb(0, 0, 0)" fill-opacity="1.000000" />
<path d="M 139.892578 33.335938 L 139.892578 32.412109 L 146.729980 32.412109 L 146.729980 33.335938 Z " fill="rgb(0, 0, 0)" fill-opacity="1.000000" />
<path d="M 146.892578 33.335938 L 146.892578 32.412109 L 153.729980 32.412109 L 153.729980 33.335938 Z " fill="rgb(0, 0, 0)" fill-opacity="1.000000" />
<path d="M 159.763184 35.715332 Q 159.349609 35.935547 158.914551 36.045654 Q 158.479492 36.155762 157.990723 36.155762 Q 156.449219 36.155762 155.597900 35.065430 Q 154.746582 33.975098 154.746582 31.998535 Q 154.746582 30.032715 155.603271 28.934326 Q 156.459961 27.835938 157.990723 27.835938 Q 158.479492 27.835938 158.914551 27.946045 Q 159.349609 28.056152 159.763184 28.276367 L 159.763184 29.388184 Q 159.365723 29.060547 158.909180 28.888672 Q 158.452637 28.716797 157.990723 28.716797 Q 156.932617 28.716797 156.406250 29.533203 Q 155.879883 30.349609 155.879883 31.998535 Q 155.879883 33.642090 156.406250 34.458496 Q 156.932617 35.274902 157.990723 35.274902 Q 158.463379 35.274902 158.917236 35.103027 Q 159.371094 34.931152 159.763184 34.603516 Z " fill="rgb(0, 0, 0)" fill-opacity="1.000000" />
<path d="M 167.203613 31.225098 Q 166.886719 30.978027 166.559082 30.865234 Q 166.231445 30.752441 165.839355 30.752441 Q 164.915527 30.752441 164.426758 31.332520 Q 163.937988 31.912598 163.937988 33.008301 L 163.937988 36.000000 L 162.944336 36.000000 L 162.944336 29.984375 L 163.937988 29.984375 L 163.937988 31.160645 Q 164.185059 30.521484 164.697998 30.180420 Q 165.210938 29.839355 165.914551 29.839355 Q 166.279785 29.839355 166.596680 29.930664 Q 166.913574 30.021973 167.203613 30.215332 Z " fill="rgb(0, 0, 0)" fill-opacity="1.000000" />
<path d="M 174.015625 32.498047 L 174.015625 32.981445 L 169.734863 32.981445 L 169.734863 33.013672 Q 169.691895 34.243652 170.204834 34.780762 Q 170.717773 35.317871 171.652344 35.317871 Q 172.125000 35.317871 172.640625 35.167480 Q 173.156250 35.017090 173.741699 34.710938 L 173.741699 35.693848 Q 173.177734 35.924805 172.654053 36.040283 Q 172.130371 36.155762 171.641602 36.155762 Q 170.239746 36.155762 169.450195 35.315186 Q 168.660645 34.474609 168.660645 32.997559 Q 168.660645 31.558105 169.434082 30.698730 Q 170.207520 29.839355 171.496582 29.839355 Q 172.645996 29.839355 173.309326 30.618164 Q 173.972656 31.396973 174.015625 32.498047 Z M 173.027344 32.208008 Q 172.962891 31.584961 172.573486 31.131104 Q 172.184082 30.677246 171.453613 30.677246 Q 170.739258 30.677246 170.277344 31.149902 Q 169.815430 31.622559 169.772461 32.213379 Z " fill="rgb(0, 0, 0)" fill-opacity="1.000000" />
<path d="M 178.770508 32.976074 L 178.442871 32.976074 Q 177.578125 32.976074 177.140381 33.279541 Q 176.702637 33.583008 176.702637 34.184570 Q 176.702637 34.727051 177.030273 35.027832 Q 177.357910 35.328613 177.937988 35.328613 Q 178.754395 35.328613 179.221680 34.761963 Q 179.688965 34.195312 179.694336 33.196289 L 179.694336 32.976074 Z M 180.687988 32.567871 L 180.687988 36.000000 L 179.694336 36.000000 L 179.694336 35.108398 Q 179.377441 35.645508 178.896729 35.900635 Q 178.416016 36.155762 177.728516 36.155762 Q 176.810059 36.155762 176.262207 35.637451 Q 175.714355 35.119141 175.714355 34.249023 Q 175.714355 33.244629 176.388428 32.723633 Q 177.062500 32.202637 178.367676 32.202637 L 179.694336 32.202637 L 179.694336 32.046875 Q 179.688965 31.327148 179.329102 31.002197 Q 178.969238 30.677246 178.179688 30.677246 Q 177.674805 30.677246 177.159180 30.822266 Q 176.643555 30.967285 176.154785 31.246582 L 176.154785 30.258301 Q 176.702637 30.048828 177.204834 29.944092 Q 177.707031 29.839355 178.179688 29.839355 Q 178.926270 29.839355 179.455322 30.059570 Q 179.984375 30.279785 180.312012 30.720215 Q 180.516113 30.988770 180.602051 31.383545 Q 180.687988 31.778320 180.687988 32.567871 Z " fill="rgb(0, 0, 0)" fill-opacity="1.000000" />
<path d="M 185.297852 28.276367 L 185.297852 29.984375 L 187.542969 29.984375 L 187.542969 30.752441 L 185.297852 30.752441 L 185.297852 34.018066 Q 185.297852 34.684082 185.550293 34.947266 Q 185.802734 35.210449 186.431152 35.210449 L 187.542969 35.210449 L 187.542969 36.000000 L 186.334473 36.000000 Q 185.222656 36.000000 184.766113 35.554199 Q 184.309570 35.108398 184.309570 34.018066 L 184.309570 30.752441 L 182.703613 30.752441 L 182.703613 29.984375 L 184.309570 29.984375 L 184.309570 28.276367 Z " fill="rgb(0, 0, 0)" fill-opacity="1.000000" />
<path d="M 195.015625 32.498047 L 195.015625 32.981445 L 190.734863 32.981445 L 190.734863 33.013672 Q 190.691895 34.243652 191.204834 34.780762 Q 191.717773 35.317871 192.652344 35.317871 Q 193.125000 35.317871 193.640625 35.167480 Q 194.156250 35.017090 194.741699 34.710938 L 194.741699 35.693848 Q 194.177734 35.924805 193.654053 36.040283 Q 193.130371 36.155762 192.641602 36.155762 Q 191.239746 36.155762 190.450195 35.315186 Q 189.660645 34.474609 189.660645 32.997559 Q 189.660645 31.558105 190.434082 30.698730 Q 191.207520 29.839355 192.496582 29.839355 Q 193.645996 29.839355 194.309326 30.618164 Q 194.972656 31.396973 195.015625 32.498047 Z M 194.027344 32.208008 Q 193.962891 31.584961 193.573486 31.131104 Q 193.184082 30.677246 192.453613 30.677246 Q 191.739258 30.677246 191.277344 31.149902 Q 190.815430 31.622559 190.772461 32.213379 Z " fill="rgb(0, 0, 0)" fill-opacity="1.000000" />
<path d="M 195.892578 33.335938 L 195.892578 32.412109 L 202.729980 32.412109 L 202.729980 33.335938 Z " fill="rgb(0, 0, 0)" fill-opacity="1.000000" />
<path d="M 202.892578 33.335938 L 202.892578 32.412109 L 209.729980 32.412109 L 209.729980 33.335938 Z " fill="rgb(0, 0, 0)" fill-opacity="1.000000" />
<path d="M 209.892578 33.335938 L 209.892578 32.412109 L 216.729980 32.412109 L 216.729980 33.335938 Z " fill="rgb(0, 0, 0)" fill-opacity="1.000000" />
<path d="M 216.892578 33.335938 L 216.892578 32.412109 L 223.729980 32.412109 L 223.729980 33.335938 Z " fill="rgb(0, 0, 0)" fill-opacity="1.000000" />
<path d="M 224.032227 36.418945 L 224.032227 29.866211 L 230.590332 33.142578 Z " fill="rgb(0, 0, 0)" fill-opacity="1.000000" />
<path d="M 233.878906 39.319336 L 233.878906 25.300781 L 234.738281 25.300781 L 234.738281 39.319336 Z " fill="rgb(0, 0, 0)" fill-opacity="1.000000" />
<path d="M 267.981934 31.955566 L 267.981934 35.108398 L 269.265625 35.108398 Q 270.210938 35.108398 270.613770 34.778076 Q 271.016602 34.447754 271.016602 33.690430 Q 271.016602 32.691406 270.592285 32.323486 Q 270.167969 31.955566 269.265625 31.955566 Z M 267.981934 28.872559 L 267.981934 31.074707 L 269.244141 31.074707 Q 270.028320 31.074707 270.380127 30.773926 Q 270.731934 30.473145 270.731934 30.016602 Q 270.731934 29.409668 270.385498 29.141113 Q 270.039062 28.872559 269.244141 28.872559 Z M 266.891602 27.980957 L 269.265625 27.980957 Q 270.495605 27.980957 271.161621 28.512695 Q 271.827637 29.044434 271.827637 30.016602 Q 271.827637 30.537598 271.475830 30.961914 Q 271.124023 31.386230 270.420410 31.493652 Q 271.209961 31.611816 271.658447 32.167725 Q 272.106934 32.723633 272.106934 33.797852 Q 272.106934 34.888184 271.392578 35.444092 Q 270.678223 36.000000 269.265625 36.000000 L 266.891602 36.000000 Z " fill="rgb(0, 0, 0)" fill-opacity="1.000000" />
<path d="M 274.047363 33.722656 L 274.047363 29.995117 L 275.035645 29.995117 L 275.035645 33.722656 Q 275.035645 34.533691 275.322998 34.915039 Q 275.610352 35.296387 276.211914 35.296387 Q 276.910156 35.296387 277.280762 34.804932 Q 277.651367 34.313477 277.651367 33.395020 L 277.651367 29.995117 L 278.645020 29.995117 L 278.645020 36.000000 L 277.651367 36.000000 L 277.651367 35.097656 Q 277.388184 35.618652 276.934326 35.887207 Q 276.480469 36.155762 275.873535 36.155762 Q 274.949707 36.155762 274.498535 35.551514 Q 274.047363 34.947266 274.047363 33.722656 Z " fill="rgb(0, 0, 0)" fill-opacity="1.000000" />
<path d="M 283.861816 33.824707 Q 283.861816 34.490723 284.106201 34.829102 Q 284.350586 35.167480 284.828613 35.167480 L 285.983398 35.167480 L 285.983398 36.000000 L 284.731934 36.000000 Q 283.845703 36.000000 283.359619 35.433350 Q 282.873535 34.866699 282.873535 33.824707 L 282.873535 28.383789 L 281.289062 28.383789 L 281.289062 27.610352 L 283.861816 27.610352 Z " fill="rgb(0, 0, 0)" fill-opacity="1.000000" />
<path d="M 290.861816 33.824707 Q 290.861816 34.490723 291.106201 34.829102 Q 291.350586 35.167480 291.828613 35.167480 L 292.983398 35.167480 L 292.983398 36.000000 L 291.731934 36.000000 Q 290.845703 36.000000 290.359619 35.433350 Q 289.873535 34.866699 289.873535 33.824707 L 289.873535 28.383789 L 288.289062 28.383789 L 288.289062 27.610352 L 290.861816 27.610352 Z " fill="rgb(0, 0, 0)" fill-opacity="1.000000" />
<path d="M 300.015625 32.498047 L 300.015625 32.981445 L 295.734863 32.981445 L 295.734863 33.013672 Q 295.691895 34.243652 296.204834 34.780762 Q 296.717773 35.317871 297.652344 35.317871 Q 298.125000 35.317871 298.640625 35.167480 Q 299.156250 35.017090 299.741699 34.710938 L 299.741699 35.693848 Q 299.177734 35.924805 298.654053 36.040283 Q 298.130371 36.155762 297.641602 36.155762 Q 296.239746 36.155762 295.450195 35.315186 Q 294.660645 34.474609 294.660645 32.997559 Q 294.660645 31.558105 295.434082 30.698730 Q 296.207520 29.839355 297.496582 29.839355 Q 298.645996 29.839355 299.309326 30.618164 Q 299.972656 31.396973 300.015625 32.498047 Z M 299.027344 32.208008 Q 298.962891 31.584961 298.573486 31.131104 Q 298.184082 30.677246 297.453613 30.677246 Q 296.739258 30.677246 296.277344 31.149902 Q 295.815430 31.622559 295.772461 32.213379 Z " fill="rgb(0, 0, 0)" fill-opacity="1.000000" />
<path d="M 304.297852 28.276367 L 304.297852 29.984375 L 306.542969 29.984375 L 306.542969 30.752441 L 304.297852 30.752441 L 304.297852 34.018066 Q 304.297852 34.684082 304.550293 34.947266 Q 304.802734 35.210449 305.431152 35.210449 L 306.542969 35.210449 L 306.542969 36.000000 L 305.334473 36.000000 Q 304.222656 36.000000 303.766113 35.554199 Q 303.309570 35.108398 303.309570 34.018066 L 303.309570 30.752441 L 301.703613 30.752441 L 301.703613 29.984375 L 303.309570 29.984375 L 303.309570 28.276367 Z " fill="rgb(0, 0, 0)" fill-opacity="1.000000" />
<path d="M 345.878906 39.319336 L 345.878906 25.300781 L 346.738281 25.300781 L 346.738281 39.319336 Z " fill="rgb(0, 0, 0)" fill-opacity="1.000000" />
<path d="M 349.892578 33.335938 L 349.892578 32.412109 L 356.729980 32.412109 L 356.729980 33.335938 Z " fill="rgb(0, 0, 0)" fill-opacity="1.000000" />
<path d="M 356.892578 33.335938 L 356.892578 32.412109 L 363.729980 32.412109 L 363.729980 33.335938 Z " fill="rgb(0, 0, 0)" fill-opacity="1.000000" />
<path d="M 363.892578 33.335938 L 363.892578 32.412109 L 370.729980 32.412109 L 370.729980 33.335938 Z " fill="rgb(0, 0, 0)" fill-opacity="1.000000" />
<path d="M 370.892578 33.335938 L 370.892578 32.412109 L 377.729980 32.412109 L 377.729980 33.335938 Z " fill="rgb(0, 0, 0)" fill-opacity="1.000000" />
<path d="M 377.892578 33.335938 L 377.892578 32.412109 L 384.729980 32.412109 L 384.729980 33.335938 Z " fill="rgb(0, 0, 0)" fill-opacity="1.000000" />
<path d="M 384.892578 33.335938 L 384.892578 32.412109 L 391.729980 32.412109 L 391.729980 33.335938 Z " fill="rgb(0, 0, 0)" fill-opacity="1.000000" />
<path d="M 392.735840 27.980957 L 393.826172 27.980957 L 393.826172 31.053223 L 396.796387 31.053223 L 396.796387 27.980957 L 397.886719 27.980957 L 397.886719 36.000000 L 396.796387 36.000000 L 396.796387 31.966309 L 393.826172 31.966309 L 393.826172 36.000000 L 392.735840 36.000000 Z " fill="rgb(0, 0, 0)" fill-opacity="1.000000" />
<path d="M 400.697266 30.005859 L 403.227051 30.005859 L 403.227051 35.231934 L 405.187500 35.231934 L 405.187500 36.000000 L 400.278320 36.000000 L 400.278320 35.231934 L 402.238770 35.231934 L 402.238770 30.773926 L 400.697266 30.773926 Z M 402.238770 27.669434 L 403.227051 27.669434 L 403.227051 28.915527 L 402.238770 28.915527 Z " fill="rgb(0, 0, 0)" fill-opacity="1.000000" />
<path d="M 409.297852 28.276367 L 409.297852 29.984375 L 411.542969 29.984375 L 411.542969 30.752441 L 409.297852 30.752441 L 409.297852 34.018066 Q 409.297852 34.684082 409.550293 34.947266 Q 409.802734 35.210449 410.431152 35.210449 L 411.542969 35.210449 L 411.542969 36.000000 L 410.334473 36.000000 Q 409.222656 36.000000 408.766113 35.554199 Q 408.309570 35.108398 408.309570 34.018066 L 408.309570 30.752441 L 406.703613 30.752441 L 406.703613 29.984375 L 408.309570 29.984375 L 408.309570 28.276367 Z " fill="rgb(0, 0, 0)" fill-opacity="1.000000" />
<path d="M 412.892578 33.335938 L 412.892578 32.412109 L 419.729980 32.412109 L 419.729980 33.335938 Z " fill="rgb(0, 0, 0)" fill-opacity="1.000000" />
<path d="M 419.892578 33.335938 L 419.892578 32.412109 L 426.729980 32.412109 L 426.729980 33.335938 Z " fill="rgb(0, 0, 0)" fill-opacity="1.000000" />
<path d="M 426.892578 33.335938 L 426.892578 32.412109 L 433.729980 32.412109 L 433.729980 33.335938 Z " fill="rgb(0, 0, 0)" fill-opacity="1.000000" />
<path d="M 433.892578 33.335938 L 433.892578 32.412109 L 440.729980 32.412109 L 440.729980 33.335938 Z " fill="rgb(0, 0, 0)" fill-opacity="1.000000" />
<path d="M 440.892578 33.335938 L 440.892578 32.412109 L 447.729980 32.412109 L 447.729980 33.335938 Z " fill="rgb(0, 0, 0)" fill-opacity="1.000000" />
<path d="M 447.892578 33.335938 L 447.892578 32.412109 L 454.729980 32.412109 L 454.729980 33.335938 Z " fill="rgb(0, 0, 0)" fill-opacity="1.000000" />
<path d="M 455.032227 36.418945 L 455.032227 29.866211 L 461.590332 33.142578 Z " fill="rgb(0, 0, 0)" fill-opacity="1.000000" />
<path d="M 464.878906 39.319336 L 464.878906 25.300781 L 465.738281 25.300781 L 465.738281 39.319336 Z " fill="rgb(0, 0, 0)" fill-opacity="1.000000" />
<path d="M 499.143066 28.872559 L 499.143066 31.885742 L 500.399902 31.885742 Q 501.151855 31.885742 501.573486 31.488281 Q 501.995117 31.090820 501.995117 30.376465 Q 501.995117 29.662109 501.576172 29.267334 Q 501.157227 28.872559 500.399902 28.872559 Z M 498.058105 27.980957 L 500.399902 27.980957 Q 501.742676 27.980957 502.435547 28.590576 Q 503.128418 29.200195 503.128418 30.376465 Q 503.128418 31.563477 502.438232 32.170410 Q 501.748047 32.777344 500.399902 32.777344 L 499.143066 32.777344 L 499.143066 36.000000 L 498.058105 36.000000 Z " fill="rgb(0, 0, 0)" fill-opacity="1.000000" />
<path d="M 507.861816 33.824707 Q 507.861816 34.490723 508.106201 34.829102 Q 508.350586 35.167480 508.828613 35.167480 L 509.983398 35.167480 L 509.983398 36.000000 L 508.731934 36.000000 Q 507.845703 36.000000 507.359619 35.433350 Q 506.873535 34.866699 506.873535 33.824707 L 506.873535 28.383789 L 505.289062 28.383789 L 505.289062 27.610352 L 507.861816 27.610352 Z " fill="rgb(0, 0, 0)" fill-opacity="1.000000" />
<path d="M 514.770508 32.976074 L 514.442871 32.976074 Q 513.578125 32.976074 513.140381 33.279541 Q 512.702637 33.583008 512.702637 34.184570 Q 512.702637 34.727051 513.030273 35.027832 Q 513.357910 35.328613 513.937988 35.328613 Q 514.754395 35.328613 515.221680 34.761963 Q 515.688965 34.195312 515.694336 33.196289 L 515.694336 32.976074 Z M 516.687988 32.567871 L 516.687988 36.000000 L 515.694336 36.000000 L 515.694336 35.108398 Q 515.377441 35.645508 514.896729 35.900635 Q 514.416016 36.155762 513.728516 36.155762 Q 512.810059 36.155762 512.262207 35.637451 Q 511.714355 35.119141 511.714355 34.249023 Q 511.714355 33.244629 512.388428 32.723633 Q 513.062500 32.202637 514.367676 32.202637 L 515.694336 32.202637 L 515.694336 32.046875 Q 515.688965 31.327148 515.329102 31.002197 Q 514.969238 30.677246 514.179688 30.677246 Q 513.674805 30.677246 513.159180 30.822266 Q 512.643555 30.967285 512.154785 31.246582 L 512.154785 30.258301 Q 512.702637 30.048828 513.204834 29.944092 Q 513.707031 29.839355 514.179688 29.839355 Q 514.926270 29.839355 515.455322 30.059570 Q 515.984375 30.279785 516.312012 30.720215 Q 516.516113 30.988770 516.602051 31.383545 Q 516.687988 31.778320 516.687988 32.567871 Z " fill="rgb(0, 0, 0)" fill-opacity="1.000000" />
<path d="M 522.608398 34.066406 Q 522.361328 34.694824 521.979980 35.720703 Q 521.448242 37.138672 521.265625 37.450195 Q 521.018555 37.869141 520.647949 38.078613 Q 520.277344 38.288086 519.783203 38.288086 L 518.988281 38.288086 L 518.988281 37.460938 L 519.573730 37.460938 Q 520.008789 37.460938 520.255859 37.208496 Q 520.502930 36.956055 520.884277 35.903320 L 518.558594 29.984375 L 519.605957 29.984375 L 521.389160 34.689453 L 523.145508 29.984375 L 524.192871 29.984375 Z " fill="rgb(0, 0, 0)" fill-opacity="1.000000" />
<path d="M 531.015625 32.498047 L 531.015625 32.981445 L 526.734863 32.981445 L 526.734863 33.013672 Q 526.691895 34.243652 527.204834 34.780762 Q 527.717773 35.317871 528.652344 35.317871 Q 529.125000 35.317871 529.640625 35.167480 Q 530.156250 35.017090 530.741699 34.710938 L 530.741699 35.693848 Q 530.177734 35.924805 529.654053 36.040283 Q 529.130371 36.155762 528.641602 36.155762 Q 527.239746 36.155762 526.450195 35.315186 Q 525.660645 34.474609 525.660645 32.997559 Q 525.660645 31.558105 526.434082 30.698730 Q 527.207520 29.839355 528.496582 29.839355 Q 529.645996 29.839355 530.309326 30.618164 Q 530.972656 31.396973 531.015625 32.498047 Z M 530.027344 32.208008 Q 529.962891 31.584961 529.573486 31.131104 Q 529.184082 30.677246 528.453613 30.677246 Q 527.739258 30.677246 527.277344 31.149902 Q 526.815430 31.622559 526.772461 32.213379 Z " fill="rgb(0, 0, 0)" fill-opacity="1.000000" />
<path d="M 538.203613 31.225098 Q 537.886719 30.978027 537.559082 30.865234 Q 537.231445 30.752441 536.839355 30.752441 Q 535.915527 30.752441 535.426758 31.332520 Q 534.937988 31.912598 534.937988 33.008301 L 534.937988 36.000000 L 533.944336 36.000000 L 533.944336 29.984375 L 534.937988 29.984375 L 534.937988 31.160645 Q 535.185059 30.521484 535.697998 30.180420 Q 536.210938 29.839355 536.914551 29.839355 Q 537.279785 29.839355 537.596680 29.930664 Q 537.913574 30.021973 538.203613 30.215332 Z " fill="rgb(0, 0, 0)" fill-opacity="1.000000" />
<path d="M 576.878906 39.319336 L 576.878906 25.300781 L 577.738281 25.300781 L 577.738281 39.319336 Z " fill="rgb(0, 0, 0)" fill-opacity="1.000000" />
<path d="M 114.878906 26.319336 L 114.878906 12.300781 L 115.738281 12.300781 L 115.738281 26.319336 Z " fill="rgb(0, 0, 0)" fill-opacity="1.000000" />
<path d="M 233.878906 26.319336 L 233.878906 12.300781 L 234.738281 12.300781 L 234.738281 26.319336 Z " fill="rgb(0, 0, 0)" fill-opacity="1.000000" />
<path d="M 345.878906 26.319336 L 345.878906 12.300781 L 346.738281 12.300781 L 346.738281 26.319336 Z " fill="rgb(0, 0, 0)" fill-opacity="1.000000" />
<path d="M 464.878906 26.319336 L 464.878906 12.300781 L 465.738281 12.300781 L 465.738281 26.319336 Z " fill="rgb(0, 0, 0)" fill-opacity="1.000000" />
<path d="M 576.878906 26.319336 L 576.878906 12.300781 L 577.738281 12.300781 L 577.738281 26.319336 Z " fill="rgb(0, 0, 0)" fill-opacity="1.000000" />
<path d="M 6.892578 7.335938 L 6.892578 6.412109 L 13.729980 6.412109 L 13.729980 7.335938 Z " fill="rgb(0, 0, 0)" fill-opacity="1.000000" />
<path d="M 13.892578 7.335938 L 13.892578 6.412109 L 20.729980 6.412109 L 20.729980 7.335938 Z " fill="rgb(0, 0, 0)" fill-opacity="1.000000" />
<path d="M 20.892578 7.335938 L 20.892578 6.412109 L 27.729980 6.412109 L 27.729980 7.335938 Z " fill="rgb(0, 0, 0)" fill-opacity="1.000000" />
<path d="M 27.892578 7.335938 L 27.892578 6.412109 L 34.729980 6.412109 L 34.729980 7.335938 Z " fill="rgb(0, 0, 0)" fill-opacity="1.000000" />
<path d="M 34.892578 7.335938 L 34.892578 6.412109 L 41.729980 6.412109 L 41.729980 7.335938 Z " fill="rgb(0, 0, 0)" fill-opacity="1.000000" />
<path d="M 41.892578 7.335938 L 41.892578 6.412109 L 48.729980 6.412109 L 48.729980 7.335938 Z " fill="rgb(0, 0, 0)" fill-opacity="1.000000" />
<path d="M 48.892578 7.335938 L 48.892578 6.412109 L 55.729980 6.412109 L 55.729980 7.335938 Z " fill="rgb(0, 0, 0)" fill-opacity="1.000000" />
<path d="M 55.892578 7.335938 L 55.892578 6.412109 L 62.729980 6.412109 L 62.729980 7.335938 Z " fill="rgb(0, 0, 0)" fill-opacity="1.000000" />
<path d="M 62.892578 7.335938 L 62.892578 6.412109 L 69.729980 6.412109 L 69.729980 7.335938 Z " fill="rgb(0, 0, 0)" fill-opacity="1.000000" />
<path d="M 69.892578 7.335938 L 69.892578 6.412109 L 76.729980 6.412109 L 76.729980 7.335938 Z " fill="rgb(0, 0, 0)" fill-opacity="1.000000" />
<path d="M 76.892578 7.335938 L 76.892578 6.412109 L 83.729980 6.412109 L 83.729980 7.335938 Z " fill="rgb(0, 0, 0)" fill-opacity="1.000000" />
<path d="M 83.892578 7.335938 L 83.892578 6.412109 L 90.729980 6.412109 L 90.729980 7.335938 Z " fill="rgb(0, 0, 0)" fill-opacity="1.000000" />
<path d="M 90.892578 7.335938 L 90.892578 6.412109 L 97.729980 6.412109 L 97.729980 7.335938 Z " fill="rgb(0, 0, 0)" fill-opacity="1.000000" />
<path d="M 97.892578 7.335938 L 97.892578 6.412109 L 104.729980 6.412109 L 104.729980 7.335938 Z " fill="rgb(0, 0, 0)" fill-opacity="1.000000" />
<path d="M 104.892578 7.335938 L 104.892578 6.412109 L 111.729980 6.412109 L 111.729980 7.335938 Z " fill="rgb(0, 0, 0)" fill-opacity="1.000000" />
<path d="M 114.878906 13.319336 L 114.878906 7.335938 L 111.892578 7.335938 L 111.892578 6.412109 L 115.738281 6.412109 L 115.738281 13.319336 Z " fill="rgb(0, 0, 0)" fill-opacity="1.000000" />
<path d="M 233.878906 13.319336 L 233.878906 6.412109 L 237.729980 6.412109 L 237.729980 7.335938 L 234.738281 7.335938 L 234.738281 13.319336 Z " fill="rgb(0, 0, 0)" fill-opacity="1.000000" />
<path d="M 237.892578 7.335938 L 237.892578 6.412109 L 244.729980 6.412109 L 244.729980 7.335938 Z " fill="rgb(0, 0, 0)" fill-opacity="1.000000" />
<path d="M 244.892578 7.335938 L 244.892578 6.412109 L 251.729980 6.412109 L 251.729980 7.335938 Z " fill="rgb(0, 0, 0)" fill-opacity="1.000000" />
<path d="M 251.892578 7.335938 L 251.892578 6.412109 L 258.729980 6.412109 L 258.729980 7.335938 Z " fill="rgb(0, 0, 0)" fill-opacity="1.000000" />
<path d="M 258.892578 7.335938 L 258.892578 6.412109 L 265.729980 6.412109 L 265.729980 7.335938 Z " fill="rgb(0, 0, 0)" fill-opacity="1.000000" />
<path d="M 265.892578 7.335938 L 265.892578 6.412109 L 272.729980 6.412109 L 272.729980 7.335938 Z " fill="rgb(0, 0, 0)" fill-opacity="1.000000" />
<path d="M 272.892578 7.335938 L 272.892578 6.412109 L 279.729980 6.412109 L 279.729980 7.335938 Z " fill="rgb(0, 0, 0)" fill-opacity="1.000000" />
<path d="M 279.892578 7.335938 L 279.892578 6.412109 L 286.729980 6.412109 L 286.729980 7.335938 Z " fill="rgb(0, 0, 0)" fill-opacity="1.000000" />
<path d="M 286.892578 7.335938 L 286.892578 6.412109 L 293.729980 6.412109 L 293.729980 7.335938 Z " fill="rgb(0, 0, 0)" fill-opacity="1.000000" />
<path d="M 293.892578 7.335938 L 293.892578 6.412109 L 300.729980 6.412109 L 300.729980 7.335938 Z " fill="rgb(0, 0, 0)" fill-opacity="1.000000" />
<path d="M 300.892578 7.335938 L 300.892578 6.412109 L 307.729980 6.412109 L 307.729980 7.335938 Z " fill="rgb(0, 0, 0)" fill-opacity="1.000000" />
<path d="M 307.892578 7.335938 L 307.892578 6.412109 L 314.729980 6.412109 L 314.729980 7.335938 Z " fill="rgb(0, 0, 0)" fill-opacity="1.000000" />
<path d="M 314.892578 7.335938 L 314.892578 6.412109 L 321.729980 6.412109 L 321.729980 7.335938 Z " fill="rgb(0, 0, 0)" fill-opacity="1.000000" />
<path d="M 321.892578 7.335938 L 321.892578 6.412109 L 328.729980 6.412109 L 328.729980 7.335938 Z " fill="rgb(0, 0, 0)" fill-opacity="1.000000" />
<path d="M 328.892578 7.335938 L 328.892578 6.412109 L 335.729980 6.412109 L 335.729980 7.335938 Z " fill="rgb(0, 0, 0)" fill-opacity="1.000000" />
<path d="M 335.892578 7.335938 L 335.892578 6.412109 L 342.729980 6.412109 L 342.729980 7.335938 Z " fill="rgb(0, 0, 0)" fill-opacity="1.000000" />
<path d="M 345.878906 13.319336 L 345.878906 7.335938 L 342.892578 7.335938 L 342.892578 6.412109 L 346.738281 6.412109 L 346.738281 13.319336 Z " fill="rgb(0, 0, 0)" fill-opacity="1.000000" />
<path d="M 464.878906 13.319336 L 464.878906 6.412109 L 468.729980 6.412109 L 468.729980 7.335938 L 465.738281 7.335938 L 465.738281 13.319336 Z " fill="rgb(0, 0, 0)" fill-opacity="1.000000" />
<path d="M 468.892578 7.335938 L 468.892578 6.412109 L 475.729980 6.412109 L 475.729980 7.335938 Z " fill="rgb(0, 0, 0)" fill-opacity="1.000000" />
<path d="M 475.892578 7.335938 L 475.892578 6.412109 L 482.729980 6.412109 L 482.729980 7.335938 Z " fill="rgb(0, 0, 0)" fill-opacity="1.000000" />
<path d="M 482.892578 7.335938 L 482.892578 6.412109 L 489.729980 6.412109 L 489.729980 7.335938 Z " fill="rgb(0, 0, 0)" fill-opacity="1.000000" />
<path d="M 489.892578 7.335938 L 489.892578 6.412109 L 496.729980 6.412109 L 496.729980 7.335938 Z " fill="rgb(0, 0, 0)" fill-opacity="1.000000" />
<path d="M 496.892578 7.335938 L 496.892578 6.412109 L 503.729980 6.412109 L 503.729980 7.335938 Z " fill="rgb(0, 0, 0)" fill-opacity="1.000000" />
<path d="M 503.892578 7.335938 L 503.892578 6.412109 L 510.729980 6.412109 L 510.729980 7.335938 Z " fill="rgb(0, 0, 0)" fill-opacity="1.000000" />
<path d="M 510.892578 7.335938 L 510.892578 6.412109 L 517.729980 6.412109 L 517.729980 7.335938 Z " fill="rgb(0, 0, 0)" fill-opacity="1.000000" />
<path d="M 517.892578 7.335938 L 517.892578 6.412109 L 524.729980 6.412109 L 524.729980 7.335938 Z " fill="rgb(0, 0, 0)" fill-opacity="1.000000" />
<path d="M 524.892578 7.335938 L 524.892578 6.412109 L 531.729980 6.412109 L 531.729980 7.335938 Z " fill="rgb(0, 0, 0)" fill-opacity="1.000000" />
<path d="M 531.892578 7.335938 L 531.892578 6.412109 L 538.729980 6.412109 L 538.729980 7.335938 Z " fill="rgb(0, 0, 0)" fill-opacity="1.000000" />
<path d="M 538.892578 7.335938 L 538.892578 6.412109 L 545.729980 6.412109 L 545.729980 7.335938 Z " fill="rgb(0, 0, 0)" fill-opacity="1.000000" />
<path d="M 545.892578 7.335938 L 545.892578 6.412109 L 552.729980 6.412109 L 552.729980 7.335938 Z " fill="rgb(0, 0, 0)" fill-opacity="1.000000" />
<path d="M 552.892578 7.335938 L 552.892578 6.412109 L 559.729980 6.412109 L 559.729980 7.335938 Z " fill="rgb(0, 0, 0)" fill-opacity="1.000000" />
<path d="M 559.892578 7.335938 L 559.892578 6.412109 L 566.729980 6.412109 L 566.729980 7.335938 Z " fill="rgb(0, 0, 0)" fill-opacity="1.000000" />
<path d="M 566.892578 7.335938 L 566.892578 6.412109 L 573.729980 6.412109 L 573.729980 7.335938 Z " fill="rgb(0, 0, 0)" fill-opacity="1.000000" />
<path d="M 576.878906 13.319336 L 576.878906 7.335938 L 573.892578 7.335938 L 573.892578 6.412109 L 577.738281 6.412109 L 577.738281 13.319336 Z " fill="rgb(0, 0, 0)" fill-opacity="1.000000" />
</svg>